<?xml version="1.0" standalone="no"?>
<!DOCTYPE svg PUBLIC "-//W3C//DTD SVG 20010904//EN"
 "http://www.w3.org/TR/2001/REC-SVG-20010904/DTD/svg10.dtd">
<svg version="1.0" xmlns="http://www.w3.org/2000/svg"
 width="50" height="50" viewBox="0 0 512.000000 512.000000"
 preserveAspectRatio="xMidYMid meet">

<g transform="translate(0.000000,512.000000) scale(0.100000,-0.100000)"
fill="#19865352" stroke="none">
<path d="M1151 4920 c-23 -10 -23 -11 -6 -30 26 -29 186 -104 295 -138 148
-47 360 -83 360 -62 0 25 -86 101 -158 138 -127 66 -230 94 -357 98 -61 2
-121 -1 -134 -6z"/>
<path d="M2686 4615 c-22 -8 -51 -25 -64 -39 -22 -22 -24 -28 -14 -51 23 -49
167 -124 292 -150 102 -21 121 -19 171 18 24 19 60 42 79 52 l34 18 -39 34
c-119 104 -341 160 -459 118z"/>
<path d="M1788 4583 l-37 -4 32 -58 c32 -58 32 -59 86 -65 30 -4 56 -5 58 -2
2 2 -11 33 -29 70 -25 51 -37 66 -53 64 -11 -1 -37 -3 -57 -5z"/>
<path d="M3275 4387 c-57 -19 -91 -38 -168 -96 -113 -83 -135 -127 -99 -197
25 -48 43 -65 110 -99 101 -50 192 -68 352 -69 137 -1 148 1 201 25 73 34 88
66 65 136 -34 101 -162 240 -263 285 -55 24 -148 31 -198 15z"/>
<path d="M1675 4331 c-22 -10 -50 -30 -63 -43 l-23 -26 38 -31 c73 -62 246
-134 396 -167 135 -30 377 -19 377 17 0 74 -193 193 -394 244 -125 32 -270 34
-331 6z"/>
<path d="M2657 4343 c-9 -15 -57 -270 -72 -383 -14 -113 -35 -346 -35 -401 0
-28 2 -29 50 -29 58 0 55 -7 65 180 7 132 37 365 66 495 10 49 19 93 19 97 0
7 -72 48 -84 48 -3 0 -7 -3 -9 -7z"/>
<path d="M2915 3950 c-82 -130 -214 -416 -198 -430 10 -9 83 -33 87 -28 1 1
24 53 50 113 27 61 74 155 105 210 31 55 57 103 59 106 2 4 -15 21 -37 38
l-40 32 -26 -41z"/>
<path d="M2036 3914 c60 -101 114 -224 164 -374 l52 -155 43 39 43 39 -39 113
c-52 153 -125 317 -154 348 -13 14 -35 26 -48 26 -14 0 -39 3 -58 7 l-33 6 30
-49z"/>
<path d="M2288 3943 l-26 -4 34 -76 c37 -80 114 -302 114 -327 0 -24 16 -27
64 -15 l44 11 -18 66 c-24 84 -75 229 -105 299 -25 56 -29 58 -107 46z"/>
<path d="M3499 3627 c-70 -30 -119 -67 -154 -117 -56 -80 -68 -156 -36 -226
38 -84 137 -134 307 -156 77 -10 104 -9 175 5 140 27 206 91 195 191 -23 213
-297 383 -487 303z"/>
<path d="M1790 3535 c-112 -32 -187 -90 -232 -182 -26 -53 -32 -80 -36 -149
-10 -192 53 -330 192 -423 81 -54 235 -21 390 83 54 37 61 44 58 71 -1 17 -4
77 -5 135 -2 114 12 174 60 259 25 43 25 43 6 70 -31 41 -113 99 -173 122 -73
28 -188 34 -260 14z"/>
<path d="M2473 3411 c-136 -47 -215 -167 -215 -330 0 -99 15 -157 65 -261 34
-69 58 -102 132 -176 98 -100 173 -144 277 -166 203 -42 368 129 368 381 0
158 -52 288 -162 406 -132 141 -314 199 -465 146z"/>
<path d="M3177 3188 l-29 -41 20 -60 19 -60 42 56 c22 31 41 59 41 62 0 10
-52 85 -59 85 -3 -1 -19 -19 -34 -42z"/>
<path d="M2470 2370 l0 -110 90 0 90 0 0 64 0 65 -56 25 c-30 14 -68 34 -84
46 -15 11 -31 20 -34 20 -3 0 -6 -49 -6 -110z"/>
<path d="M1620 2001 c0 -87 6 -180 14 -223 87 -448 472 -768 926 -768 360 0
686 202 845 525 73 148 87 211 92 428 l5 187 -941 0 -941 0 0 -149z"/>
<path d="M1840 703 c0 -367 3 -492 12 -501 15 -15 61 -15 76 0 9 9 12 125 12
458 l0 447 -50 42 -50 42 0 -488z"/>
<path d="M3227 1146 l-47 -41 0 -445 c0 -334 3 -449 12 -458 16 -16 63 -15 77
2 8 9 10 149 9 499 l-3 485 -48 -42z"/>
<path d="M2510 559 c0 -369 0 -369 50 -369 50 0 50 0 50 369 l0 346 -50 0 -50
0 0 -346z"/>
</g>
</svg>
