<?xml version="1.0" standalone="no"?>
<!DOCTYPE svg PUBLIC "-//W3C//DTD SVG 20010904//EN"
 "http://www.w3.org/TR/2001/REC-SVG-20010904/DTD/svg10.dtd">
<svg version="1.0" xmlns="http://www.w3.org/2000/svg"
 width="50" height="50" viewBox="0 0 512.000000 512.000000"
 preserveAspectRatio="xMidYMid meet">

<g transform="translate(0.000000,512.000000) scale(0.100000,-0.100000)"
fill="#19865352" stroke="none">
<path d="M3405 4857 c-27 -42 -35 -88 -35 -203 0 -141 46 -394 71 -394 5 0 9
1 9 3 0 1 11 46 25 100 49 196 52 403 7 481 -23 40 -56 45 -77 13z"/>
<path d="M2789 4603 c-2 -33 3 -58 19 -88 22 -43 137 -159 212 -214 76 -56
209 -136 215 -129 8 8 -83 160 -142 235 -63 84 -159 174 -208 197 -46 22 -95
21 -96 -1z"/>
<path d="M3985 4598 c-50 -26 -165 -142 -227 -229 -57 -81 -123 -199 -111
-199 16 0 165 92 228 142 134 103 236 237 220 288 -8 27 -57 26 -110 -2z"/>
<path d="M3374 4081 c-46 -28 -64 -59 -64 -111 0 -63 27 -104 84 -125 44 -17
48 -17 92 0 57 22 84 62 84 128 0 40 -5 53 -33 83 -28 31 -41 37 -83 41 -37 3
-57 -1 -80 -16z"/>
<path d="M2597 4026 c-110 -40 -82 -103 56 -127 92 -16 250 -1 397 36 58 15
107 28 108 30 7 7 -129 45 -215 60 -109 19 -294 19 -346 1z"/>
<path d="M3895 4016 c-60 -13 -126 -30 -145 -38 l-35 -15 112 -27 c161 -38
309 -52 400 -37 120 21 157 72 83 115 -55 33 -268 34 -415 2z"/>
<path d="M1349 3874 c-32 -39 -5 -193 62 -341 34 -75 124 -229 141 -239 16
-10 2 189 -23 309 -43 211 -126 336 -180 271z"/>
<path d="M1981 3791 c-51 -51 -105 -149 -146 -264 -34 -96 -71 -245 -62 -253
6 -6 93 89 154 169 108 140 177 300 154 360 -16 40 -52 36 -100 -12z"/>
<path d="M3185 3742 c-188 -103 -364 -264 -393 -359 -13 -41 -1 -73 26 -73 62
1 198 113 291 240 55 74 136 209 130 215 -3 2 -27 -8 -54 -23z"/>
<path d="M3640 3765 c0 -3 12 -27 27 -53 99 -172 238 -333 326 -377 61 -30 83
-31 96 -6 41 76 -150 279 -381 406 -38 20 -68 34 -68 30z"/>
<path d="M3278 3598 c-177 -346 -295 -640 -393 -978 -118 -407 -187 -823 -202
-1202 l-6 -168 50 0 50 0 7 148 c28 608 175 1239 422 1811 43 100 58 147 69
226 8 55 23 133 33 173 10 39 17 72 15 72 -1 0 -22 -37 -45 -82z"/>
<path d="M3407 3573 c-36 -152 -38 -171 -39 -291 0 -120 13 -180 48 -213 l24
-22 24 22 c66 62 66 311 -1 554 -9 31 -20 57 -24 57 -4 0 -19 -48 -32 -107z"/>
<path d="M848 3460 c-69 -42 49 -152 246 -230 80 -31 284 -85 292 -77 8 7
-125 125 -201 179 -137 98 -291 156 -337 128z"/>
<path d="M2374 3319 c-105 -13 -272 -85 -409 -175 l-60 -39 45 -3 c121 -9 365
39 471 92 139 69 110 145 -47 125z"/>
<path d="M1568 3134 c-33 -17 -60 -65 -61 -109 -2 -80 54 -135 138 -135 42 0
52 5 86 39 35 35 39 44 39 91 0 47 -4 56 -39 91 -34 35 -44 39 -87 39 -27 -1
-61 -7 -76 -16z"/>
<path d="M1200 2934 c-14 -2 -59 -9 -100 -15 -208 -31 -373 -124 -322 -181 11
-13 30 -18 75 -18 80 0 164 23 277 76 89 42 240 130 240 140 0 5 -133 3 -170
-2z"/>
<path d="M1930 2844 c154 -158 420 -300 496 -265 76 34 -38 147 -227 225 -80
33 -264 86 -299 86 -8 0 5 -20 30 -46z"/>
<path d="M1453 2717 c-165 -170 -292 -414 -254 -486 43 -80 182 91 255 314 28
87 59 215 53 221 -2 2 -26 -20 -54 -49z"/>
<path d="M3505 2713 c-330 -256 -481 -454 -593 -783 -39 -113 -97 -338 -90
-346 5 -4 296 298 381 395 121 139 202 277 268 456 48 133 108 325 100 325 -3
-1 -33 -22 -66 -47z"/>
<path d="M1724 2633 c14 -249 97 -483 171 -483 76 0 53 194 -47 395 -43 85
-116 205 -125 205 -4 0 -3 -53 1 -117z"/>
<path d="M1890 2735 c0 -3 19 -39 42 -78 141 -242 331 -731 467 -1202 l58
-200 51 -3 c29 -2 52 1 52 6 0 5 -22 89 -50 185 -100 355 -236 733 -364 1018
-55 122 -59 127 -118 169 -34 24 -78 59 -100 78 -21 19 -38 31 -38 27z"/>
<path d="M1581 1753 c204 -208 297 -263 641 -383 156 -54 154 -57 38 71 -182
201 -398 320 -679 373 l-74 14 74 -75z"/>
<path d="M1753 1134 c-3 -9 -3 -93 0 -188 7 -193 25 -285 82 -403 46 -99 87
-156 168 -236 l68 -67 489 0 489 0 68 67 c81 80 122 137 168 236 61 128 76
208 78 417 l2 185 -803 3 c-732 2 -803 1 -809 -14z"/>
</g>
</svg>
