<?xml version="1.0" standalone="no"?>
<!DOCTYPE svg PUBLIC "-//W3C//DTD SVG 20010904//EN"
 "http://www.w3.org/TR/2001/REC-SVG-20010904/DTD/svg10.dtd">
<svg version="1.0" xmlns="http://www.w3.org/2000/svg"
 width="30" height="30" viewBox="0 0 512.000000 512.000000"
 preserveAspectRatio="xMidYMid meet">

<g transform="translate(0.000000,512.000000) scale(0.100000,-0.100000)"
fill="#19865352" stroke="none">
<path d="M3068 4931 c-81 -26 -135 -61 -196 -125 -58 -62 -106 -155 -117 -228
-7 -46 -6 -47 21 -55 56 -15 167 -8 237 16 152 51 279 199 294 343 l5 55 -32
7 c-58 11 -154 5 -212 -13z"/>
<path d="M2450 3620 l0 -1260 110 0 110 0 0 1260 0 1260 -110 0 -110 0 0
-1260z"/>
<path d="M1831 4553 c-22 -4 -23 -8 -18 -61 22 -210 263 -395 479 -368 80 10
84 14 69 80 -27 123 -124 251 -229 305 -83 43 -210 61 -301 44z"/>
<path d="M3016 4090 c-124 -163 -111 -399 30 -550 26 -27 52 -50 60 -50 18 0
70 70 99 132 55 121 54 241 -4 364 -32 69 -104 154 -130 154 -9 0 -34 -22 -55
-50z"/>
<path d="M3394 3609 c-330 -264 -609 -491 -622 -503 -21 -21 -23 -28 -20 -144
l3 -123 680 546 c374 301 682 551 683 556 4 11 -105 149 -117 149 -5 0 -278
-216 -607 -481z"/>
<path d="M2055 3839 c-55 -51 -111 -159 -127 -247 -22 -118 22 -273 104 -366
l35 -40 52 49 c34 32 64 74 89 124 36 74 37 77 37 190 0 96 -4 125 -23 171
-22 57 -88 150 -109 157 -7 3 -33 -15 -58 -38z"/>
<path d="M1088 3744 c-35 -42 -64 -79 -66 -83 -2 -6 635 -522 1300 -1054 l48
-39 0 136 0 135 -507 407 c-280 224 -554 445 -610 491 l-102 84 -63 -77z"/>
<path d="M3975 3656 c-54 -13 -130 -49 -140 -66 -10 -16 51 -105 102 -150 120
-105 288 -136 437 -79 28 10 61 27 74 37 l23 18 -40 60 c-101 151 -283 223
-456 180z"/>
<path d="M925 3363 c-108 -39 -212 -125 -252 -208 -17 -36 -17 -37 5 -55 63
-52 207 -79 311 -60 126 23 258 116 311 220 25 49 27 47 -60 87 -74 35 -237
43 -315 16z"/>
<path d="M3115 2976 c-58 -19 -125 -55 -125 -68 0 -22 63 -109 104 -144 22
-19 70 -50 106 -67 61 -30 70 -32 180 -32 104 0 120 3 173 27 31 15 60 34 63
43 10 25 -64 124 -129 172 -102 74 -261 104 -372 69z"/>
<path d="M1400 2060 l0 -210 1160 0 1160 0 0 210 0 210 -1160 0 -1160 0 0
-210z"/>
<path d="M1505 1730 c-14 -22 -25 -42 -25 -45 0 -3 486 -5 1080 -5 594 0 1080
2 1080 5 0 3 -11 23 -25 45 l-25 40 -1030 0 -1030 0 -25 -40z"/>
<path d="M1432 1587 c-15 -18 -59 -152 -78 -239 -21 -91 -23 -336 -5 -428 55
-280 212 -543 424 -712 l49 -38 743 0 743 0 99 94 c191 182 305 383 359 638
24 111 24 332 0 443 -20 91 -62 224 -78 242 -15 19 -2241 19 -2256 0z"/>
</g>
</svg>
