<?xml version="1.0" standalone="no"?>
<!DOCTYPE svg PUBLIC "-//W3C//DTD SVG 20010904//EN"
 "http://www.w3.org/TR/2001/REC-SVG-20010904/DTD/svg10.dtd">
<svg version="1.0" xmlns="http://www.w3.org/2000/svg"
  width="70" height="70" viewBox="0 0 512.000000 512.000000"
 preserveAspectRatio="xMidYMid meet">

<g transform="translate(0.000000,512.000000) scale(0.100000,-0.100000)"
fill="#19865352" stroke="none">
<path d="M2873 4879 c-60 -11 -130 -44 -177 -83 -30 -24 -55 -34 -91 -39 -71
-8 -152 -41 -210 -85 -86 -65 -118 -164 -77 -244 l19 -36 -71 -4 c-119 -9
-237 -78 -297 -175 -26 -41 -19 -49 50 -59 119 -18 251 27 340 116 l53 53 34
-16 34 -17 0 56 c0 51 -3 57 -40 93 -49 47 -52 77 -9 125 62 71 174 105 354
109 100 2 116 5 177 34 38 18 89 53 120 83 l53 53 -34 14 c-71 30 -150 38
-228 22z"/>
<path d="M3133 4555 c-42 -21 -88 -54 -112 -81 -47 -50 -96 -146 -106 -205
l-7 -39 -35 15 c-20 8 -37 15 -39 15 -2 0 -4 -24 -4 -54 l0 -54 85 -40 c107
-52 149 -83 170 -129 40 -84 14 -148 -88 -214 -55 -36 -176 -88 -240 -104
l-27 -7 0 391 0 391 -70 0 -70 0 -2 -412 -3 -413 -155 -42 c-85 -23 -201 -56
-257 -74 l-101 -32 -56 51 c-71 65 -146 100 -244 114 -65 10 -89 9 -154 -6
-43 -10 -80 -21 -83 -26 -3 -5 20 -36 51 -69 63 -69 165 -126 242 -136 72 -10
73 -11 27 -58 -60 -63 -88 -142 -82 -227 14 -210 166 -307 580 -368 l127 -19
0 52 0 52 -117 18 c-226 34 -371 81 -435 142 -27 26 -58 99 -58 137 0 111 95
198 285 262 86 29 209 63 213 59 2 -2 -7 -19 -21 -37 -62 -83 -94 -196 -84
-296 7 -68 25 -122 39 -122 23 0 102 76 138 132 54 83 74 167 67 277 l-6 89
31 6 c17 3 37 6 44 6 12 0 14 -113 14 -704 l0 -704 -77 -27 c-43 -15 -82 -29
-88 -31 -6 -2 -9 27 -6 81 4 110 -22 200 -82 282 -42 57 -115 123 -135 123
-16 0 -34 -90 -34 -173 0 -52 7 -98 22 -142 22 -66 93 -175 127 -193 21 -12
23 -10 -52 -52 -33 -18 -83 -50 -111 -71 l-51 -37 -12 51 c-43 188 -214 355
-412 402 -35 8 -67 15 -71 15 -10 0 1 -65 22 -140 49 -166 187 -313 345 -365
33 -11 61 -20 63 -21 2 -1 -13 -23 -33 -50 -45 -59 -78 -123 -99 -193 -24 -82
-24 -82 35 -79 l50 3 23 67 c41 124 120 216 261 303 60 38 219 108 293 130
l22 6 0 -255 0 -256 70 0 70 0 0 278 0 277 120 36 120 35 32 -33 c18 -19 66
-51 106 -70 62 -31 86 -37 155 -40 84 -4 167 12 174 34 7 19 -100 118 -158
147 -30 14 -71 29 -92 33 l-38 6 41 34 c63 55 83 103 78 187 -4 51 -13 86 -32
124 -28 55 -105 137 -138 148 -21 6 -24 24 -4 24 7 0 45 16 84 35 150 75 281
271 282 422 l0 31 -60 -14 c-197 -46 -354 -199 -403 -392 -7 -29 -15 -50 -18
-48 -2 3 -37 14 -77 25 l-72 20 0 -54 0 -54 57 -16 c174 -51 266 -134 280
-256 6 -49 5 -51 -39 -93 -49 -47 -109 -74 -285 -129 l-113 -35 0 709 0 708
41 11 c23 6 74 24 113 39 l72 28 49 -44 c122 -111 311 -152 442 -98 31 13 33
16 22 36 -21 40 -102 110 -161 140 -33 17 -91 35 -131 41 l-72 11 33 35 c67
70 85 143 58 236 -20 68 -68 125 -148 176 l-58 36 64 41 c102 65 167 172 182
298 6 51 5 55 -13 55 -11 0 -52 -16 -90 -35z"/>
<path d="M1613 1128 c4 -155 11 -255 21 -298 52 -222 167 -416 329 -551 l59
-49 583 0 583 0 81 76 c106 100 164 177 223 300 81 170 91 220 96 507 l4 247
-992 0 -993 0 6 -232z"/>
</g>
</svg>
