<?xml version="1.0" standalone="no"?>
<!DOCTYPE svg PUBLIC "-//W3C//DTD SVG 20010904//EN"
 "http://www.w3.org/TR/2001/REC-SVG-20010904/DTD/svg10.dtd">
<svg version="1.0" xmlns="http://www.w3.org/2000/svg"
 width="30" height="30" viewBox="0 0 512.000000 512.000000"
 preserveAspectRatio="xMidYMid meet">

<g transform="translate(0.000000,512.000000) scale(0.100000,-0.100000)"
fill="#19865352" stroke="none">
<path d="M2522 4782 c-32 -68 -72 -206 -72 -246 0 -12 15 -46 33 -76 18 -30
41 -74 51 -97 11 -24 22 -43 26 -43 4 0 16 19 26 42 10 23 34 67 52 98 30 49
33 60 28 103 -12 89 -85 287 -106 287 -4 0 -21 -31 -38 -68z"/>
<path d="M2066 4663 c11 -86 34 -173 65 -249 28 -67 35 -76 75 -93 66 -30 172
-101 237 -160 66 -61 70 -55 36 55 -43 141 -125 271 -231 369 -62 58 -158 125
-177 125 -7 0 -8 -18 -5 -47z"/>
<path d="M2980 4669 c-181 -117 -320 -322 -356 -524 l-7 -40 59 54 c67 61 171
132 237 160 41 18 47 25 76 94 43 104 84 297 62 297 -4 0 -36 -18 -71 -41z"/>
<path d="M1710 4292 c0 -12 103 -116 160 -161 69 -55 189 -115 282 -142 93
-26 318 -39 318 -18 0 23 -161 173 -225 211 -80 46 -181 86 -264 104 -69 14
-271 19 -271 6z"/>
<path d="M3151 4289 c-108 -21 -246 -82 -335 -149 -60 -44 -166 -153 -166
-171 0 -19 230 -5 318 20 96 28 216 89 289 147 58 47 152 142 153 157 0 10
-204 7 -259 -4z"/>
<path d="M2496 3753 c-32 -49 -84 -142 -116 -208 -203 -413 -239 -861 -106
-1298 l27 -87 259 0 259 0 25 78 c136 434 101 889 -104 1307 -55 113 -166 295
-180 295 -3 0 -32 -39 -64 -87z"/>
<path d="M2304 3708 c-374 -265 -588 -560 -625 -859 -24 -201 43 -419 192
-618 l53 -71 133 0 c73 0 133 3 133 8 0 4 -12 43 -25 87 -60 189 -88 477 -66
679 29 262 97 487 216 714 30 56 53 102 51 102 -1 0 -29 -19 -62 -42z"/>
<path d="M2824 3607 c186 -371 245 -760 177 -1158 -11 -63 -31 -151 -45 -195
-14 -43 -26 -82 -26 -86 0 -5 60 -8 133 -8 l133 0 51 68 c149 196 221 429 193
629 -29 217 -144 420 -350 624 -85 84 -265 229 -318 258 -13 7 4 -34 52 -132z"/>
<path d="M1350 1935 l0 -115 1210 0 1210 0 0 115 0 115 -1210 0 -1210 0 0
-115z"/>
<path d="M1510 1713 c1 -5 88 -332 194 -728 l193 -720 663 0 663 0 193 720
c107 396 194 723 194 728 0 4 -472 7 -1050 7 -577 0 -1050 -3 -1050 -7z"/>
</g>
</svg>
