<?xml version="1.0" standalone="no"?>
<!DOCTYPE svg PUBLIC "-//W3C//DTD SVG 20010904//EN"
 "http://www.w3.org/TR/2001/REC-SVG-20010904/DTD/svg10.dtd">
<svg version="1.0" xmlns="http://www.w3.org/2000/svg"
 width="30" height="30" viewBox="0 0 512.000000 512.000000"
 preserveAspectRatio="xMidYMid meet">

<g transform="translate(0.000000,512.000000) scale(0.100000,-0.100000)"
fill="#19865352" stroke="none">
<path d="M2470 4941 c-87 -27 -174 -104 -213 -189 l-22 -47 -3 -982 -2 -983
330 0 330 0 -2 983 -3 982 -28 56 c-57 116 -174 190 -300 188 -34 0 -73 -4
-87 -8z"/>
<path d="M3346 4327 c-22 -12 -49 -38 -60 -57 -20 -33 -21 -54 -26 -443 l-5
-409 -33 -29 c-32 -28 -35 -29 -142 -29 l-110 0 0 -175 0 -175 143 0 c237 0
348 46 431 179 59 94 60 100 64 563 2 286 0 440 -8 467 -30 112 -154 165 -254
108z"/>
<path d="M1642 4024 c-29 -14 -64 -41 -78 -60 -53 -69 -54 -83 -54 -676 l0
-548 230 0 230 0 0 568 c0 639 3 611 -78 684 -70 63 -163 75 -250 32z"/>
<path d="M1192 2398 l3 -253 1365 0 1365 0 3 253 2 252 -1370 0 -1370 0 2
-252z"/>
<path d="M1315 2005 c-19 -30 -35 -57 -35 -60 0 -3 576 -5 1280 -5 704 0 1280
2 1280 5 0 3 -16 30 -35 60 l-35 55 -1210 0 -1210 0 -35 -55z"/>
<path d="M1221 1823 c-47 -94 -91 -283 -106 -453 -13 -159 28 -410 96 -579 88
-220 249 -439 427 -579 l54 -42 868 0 868 0 54 42 c398 314 594 846 498 1348
-14 76 -58 217 -81 263 l-19 37 -1320 0 -1320 0 -19 -37z"/>
</g>
</svg>
