<?xml version="1.0" standalone="no"?>
<!DOCTYPE svg PUBLIC "-//W3C//DTD SVG 20010904//EN"
 "http://www.w3.org/TR/2001/REC-SVG-20010904/DTD/svg10.dtd">
<svg version="1.0" xmlns="http://www.w3.org/2000/svg"
 width="50" height="50" viewBox="0 0 512.000000 512.000000"
 preserveAspectRatio="xMidYMid meet">

<g transform="translate(0.000000,512.000000) scale(0.100000,-0.100000)"
fill="#19865352" stroke="none">
<path d="M3560 4864 c-30 -8 -95 -34 -145 -58 -312 -153 -569 -505 -650 -891
-18 -85 -25 -292 -12 -357 8 -38 8 -38 57 -38 151 0 285 97 415 300 67 106
244 424 292 528 76 161 143 402 143 509 0 27 -18 29 -100 7z"/>
<path d="M1185 4619 c3 -13 29 -93 56 -177 86 -267 161 -418 272 -552 l62 -75
6 130 c7 133 21 203 65 327 31 85 29 93 -61 176 -115 108 -240 175 -351 188
-56 7 -56 7 -49 -17z"/>
<path d="M1893 4543 c-146 -250 -212 -450 -213 -643 0 -151 48 -343 124 -493
l41 -81 91 -45 c147 -74 313 -215 390 -330 22 -33 33 -40 81 -50 31 -6 73 -11
93 -11 l37 0 6 109 c8 140 30 244 74 356 25 61 36 105 35 135 -10 357 -6 403
50 596 11 41 11 42 -44 125 -64 95 -157 196 -238 257 -120 89 -313 162 -430
162 l-46 0 -51 -87z"/>
<path d="M2775 3411 c-27 -5 -34 -15 -62 -87 -32 -78 -56 -197 -66 -319 l-5
-60 50 55 c59 66 120 187 148 295 28 109 27 125 -7 124 -16 -1 -41 -4 -58 -8z"/>
<path d="M1420 3264 c-14 -2 -60 -6 -102 -9 l-78 -7 59 -66 c32 -37 117 -146
188 -242 199 -268 337 -392 558 -502 94 -48 264 -114 317 -125 l31 -6 -6 124
c-11 245 -90 423 -259 585 -161 155 -298 221 -503 244 -86 9 -150 11 -205 4z"/>
<path d="M3592 3180 c-242 -31 -451 -147 -594 -332 -178 -228 -237 -421 -193
-634 9 -41 25 -95 36 -121 l20 -46 87 6 c112 7 196 29 300 78 245 114 469 355
587 629 38 88 88 267 100 356 6 50 6 51 -22 57 -58 11 -250 15 -321 7z"/>
<path d="M2627 2803 c-5 -7 -20 -13 -35 -13 -52 0 -52 5 -54 -320 l-3 -305
-18 40 c-18 37 -19 39 -28 18 -4 -13 -20 -25 -36 -29 -15 -3 -31 -7 -36 -7 -4
-1 22 -63 58 -137 l65 -134 0 -128 c0 -70 -4 -128 -8 -128 -4 0 -13 5 -20 12
-9 9 -12 5 -12 -20 0 -21 -7 -36 -20 -44 -27 -17 -26 -21 21 -52 37 -25 40
-30 39 -69 -1 -23 -1 -68 -1 -99 l1 -58 50 0 50 0 0 54 c0 48 14 87 110 306
61 138 110 253 110 256 0 2 -11 4 -25 4 -13 0 -33 10 -44 21 l-20 22 -34 -74
c-18 -41 -46 -105 -63 -144 l-29 -70 -5 555 c-3 305 -9 549 -13 543z"/>
<path d="M1780 2033 c-61 -10 -149 -46 -183 -74 -43 -35 -47 -49 -14 -49 43 0
142 -40 197 -80 182 -133 256 -171 369 -192 90 -16 241 16 241 51 0 36 -64
145 -116 196 -113 111 -328 176 -494 148z"/>
<path d="M1723 1008 c4 -191 7 -234 26 -298 48 -160 156 -331 271 -427 l52
-43 521 0 520 0 91 93 c102 104 162 199 207 330 38 110 50 221 47 407 l-3 155
-869 3 -868 2 5 -222z"/>
</g>
</svg>
