<?xml version="1.0" standalone="no"?>
<!DOCTYPE svg PUBLIC "-//W3C//DTD SVG 20010904//EN"
 "http://www.w3.org/TR/2001/REC-SVG-20010904/DTD/svg10.dtd">
<svg version="1.0" xmlns="http://www.w3.org/2000/svg"
  width="80" height="80" viewBox="0 0 512.000000 512.000000"
 preserveAspectRatio="xMidYMid meet">

<g transform="translate(0.000000,512.000000) scale(0.100000,-0.100000)"
fill="#19865352" stroke="none">
<path d="M2366 4843 c-34 -113 -32 -343 3 -478 26 -98 106 -264 162 -336 49
-63 110 -129 120 -129 16 0 34 143 32 260 -1 150 -29 271 -92 403 -41 86 -133
217 -189 270 -27 26 -31 27 -36 10z"/>
<path d="M2925 4808 c-64 -72 -120 -155 -161 -242 -33 -70 -34 -74 -20 -113 8
-22 22 -85 31 -139 9 -54 18 -100 19 -102 2 -1 16 14 32 35 16 21 62 71 103
111 l75 73 4 127 c4 123 -11 287 -28 297 -5 3 -29 -19 -55 -47z"/>
<path d="M3420 4521 c-270 -72 -501 -263 -619 -512 -22 -46 -43 -97 -47 -112
-6 -27 -5 -28 22 -22 279 62 515 243 649 498 41 78 71 155 63 162 -1 1 -32 -5
-68 -14z"/>
<path d="M2582 3718 c-43 -104 -88 -249 -114 -369 -20 -92 -22 -133 -23 -344
0 -317 17 -412 175 -950 43 -148 85 -295 93 -325 l13 -55 53 -3 53 -3 -6 34
c-6 34 -23 93 -149 527 -153 525 -174 837 -82 1200 21 82 75 236 113 323 2 4
-10 7 -26 7 -16 0 -35 7 -42 15 -7 8 -16 15 -20 15 -5 0 -22 -33 -38 -72z"/>
<path d="M2094 3651 c-98 -110 -178 -259 -216 -399 -29 -109 -36 -320 -14
-427 9 -43 19 -81 21 -84 19 -18 157 167 210 282 62 134 80 222 80 397 0 143
-17 282 -34 279 -3 -1 -24 -22 -47 -48z"/>
<path d="M1522 3621 c-15 -87 -14 -259 1 -327 10 -43 21 -59 66 -99 30 -26 75
-71 100 -100 28 -32 48 -49 52 -42 4 7 9 41 12 77 3 36 14 97 23 135 l17 70
-28 55 c-45 90 -110 181 -173 243 l-59 58 -11 -70z"/>
<path d="M1030 3345 c0 -16 80 -177 111 -222 126 -186 326 -334 534 -393 78
-22 115 -25 115 -9 0 21 -68 158 -107 215 -118 174 -295 309 -488 373 -99 33
-165 47 -165 36z"/>
<path d="M3534 2968 c-56 -76 -137 -238 -136 -276 0 -15 12 -67 26 -117 15
-49 30 -103 34 -119 l7 -29 29 43 c15 23 55 72 88 107 l60 65 -4 126 c-5 121
-31 262 -48 262 -5 0 -30 -28 -56 -62z"/>
<path d="M3026 2973 c-13 -48 -16 -158 -6 -243 22 -196 113 -389 249 -528 73
-75 74 -76 84 -52 15 40 12 247 -5 325 -24 105 -73 225 -127 308 -47 72 -165
207 -181 207 -5 0 -11 -8 -14 -17z"/>
<path d="M4020 2746 c-256 -91 -464 -297 -550 -547 -16 -46 -27 -85 -25 -87 8
-9 134 40 207 81 181 99 325 263 401 457 26 66 42 120 36 120 -2 0 -33 -11
-69 -24z"/>
<path d="M1908 2614 c-8 -9 -27 -17 -42 -17 -14 -1 -26 -3 -26 -5 0 -2 18 -40
39 -85 79 -164 111 -300 111 -477 0 -106 -15 -250 -35 -337 -5 -22 -2 -23 48
-23 l54 0 19 118 c22 134 24 340 5 442 -7 35 -24 100 -38 145 -27 85 -101 255
-112 255 -4 0 -14 -7 -23 -16z"/>
<path d="M3310 1994 c-18 -46 -38 -153 -46 -241 l-7 -83 51 0 c58 0 62 6 62
83 0 29 7 84 16 122 8 39 17 82 20 97 5 23 3 26 -14 21 -11 -2 -32 3 -46 12
-25 17 -26 17 -36 -11z"/>
<path d="M1423 1278 c4 -278 5 -298 30 -383 72 -252 203 -453 395 -608 l34
-27 679 0 678 0 100 95 c113 109 182 203 246 337 92 192 118 345 113 668 l-3
205 -1138 3 -1139 2 5 -292z"/>
</g>
</svg>
