<?xml version="1.0" standalone="no"?>
<!DOCTYPE svg PUBLIC "-//W3C//DTD SVG 20010904//EN"
 "http://www.w3.org/TR/2001/REC-SVG-20010904/DTD/svg10.dtd">
<svg version="1.0" xmlns="http://www.w3.org/2000/svg"
 width="50" height="50" viewBox="0 0 512.000000 512.000000"
 preserveAspectRatio="xMidYMid meet">

<g transform="translate(0.000000,512.000000) scale(0.100000,-0.100000)"
fill="#19865352" stroke="none">
<path d="M2622 4878 c-69 -121 -119 -275 -129 -398 -8 -103 -14 -110 -47 -61
-35 51 -176 186 -236 227 -45 31 -163 94 -176 94 -14 0 6 -167 30 -264 15 -56
47 -141 74 -196 l49 -98 -31 13 c-104 44 -200 59 -368 60 -91 0 -170 -3 -174
-7 -3 -4 19 -39 50 -78 155 -192 388 -323 698 -392 89 -20 130 -23 298 -23
162 1 212 5 296 23 188 41 345 105 479 195 108 73 281 254 261 274 -4 4 -64 9
-134 11 -136 4 -249 -11 -357 -48 -32 -11 -62 -20 -66 -20 -4 0 12 39 36 88
24 48 55 125 69 172 25 89 52 277 41 288 -10 11 -134 -58 -215 -119 -74 -56
-146 -127 -206 -203 l-30 -38 -12 102 c-14 119 -65 281 -118 376 -20 35 -39
66 -44 69 -5 3 -22 -18 -38 -47z"/>
<path d="M2560 3339 l0 -309 54 0 c29 0 67 -5 84 -11 66 -23 48 -73 -64 -188
l-74 -75 0 -593 0 -593 100 0 100 0 0 1039 0 1040 -100 0 -100 0 0 -310z"/>
<path d="M1901 3304 c-26 -68 -37 -119 -46 -207 -6 -50 -12 -70 -26 -77 -29
-16 -48 -12 -72 17 -86 105 -209 214 -224 199 -11 -11 30 -148 68 -223 45 -90
47 -107 16 -127 -20 -14 -30 -13 -102 10 -45 14 -117 28 -165 31 l-85 6 35
-37 c76 -81 221 -160 360 -197 313 -82 640 -18 865 168 l69 58 -49 3 c-57 4
-144 -11 -228 -39 -42 -14 -63 -17 -77 -9 -34 18 -32 45 9 127 39 78 75 191
69 220 -5 24 -119 -67 -185 -147 -85 -104 -125 -93 -137 37 -6 73 -49 227 -66
238 -4 3 -18 -20 -29 -51z"/>
<path d="M3311 2642 c-17 -31 -41 -142 -41 -188 0 -27 -6 -47 -18 -57 -32 -29
-58 -20 -101 36 -40 50 -141 140 -149 132 -7 -7 30 -120 59 -177 32 -62 36
-87 17 -106 -16 -16 -46 -15 -94 2 -22 7 -58 17 -82 21 -42 7 -42 7 -42 -24 0
-26 7 -36 46 -60 267 -170 679 -141 919 63 l30 25 -50 1 c-27 0 -75 -7 -105
-16 -30 -9 -72 -19 -92 -21 -33 -4 -39 -2 -50 22 -10 23 -8 33 19 83 33 60 69
169 59 179 -9 10 -71 -43 -132 -112 -87 -98 -120 -89 -134 37 -7 61 -33 163
-45 176 -2 2 -8 -5 -14 -16z"/>
<path d="M1850 2065 l0 -495 75 0 75 0 0 495 0 495 -75 0 -75 0 0 -495z"/>
<path d="M3240 1789 l0 -219 65 0 65 0 0 219 0 219 -65 0 -65 1 0 -220z"/>
<path d="M1443 1203 c5 -274 11 -317 56 -463 25 -80 97 -224 148 -293 48 -67
154 -179 216 -228 l49 -39 652 0 652 0 70 58 c143 121 268 305 331 487 49 144
55 187 60 473 l5 272 -1122 0 -1122 0 5 -267z"/>
</g>
</svg>
