<?xml version="1.0" standalone="no"?>
<!DOCTYPE svg PUBLIC "-//W3C//DTD SVG 20010904//EN"
 "http://www.w3.org/TR/2001/REC-SVG-20010904/DTD/svg10.dtd">
<svg version="1.0" xmlns="http://www.w3.org/2000/svg"
 width="80" height="80" viewBox="0 0 512.000000 512.000000"
 preserveAspectRatio="xMidYMid meet">

<g transform="translate(0.000000,512.000000) scale(0.100000,-0.100000)"
fill="#19865352" stroke="none">
<path d="M2457 4671 c-27 -11 -63 -31 -82 -45 -81 -62 -155 -226 -190 -423
-35 -193 -30 -570 11 -883 15 -111 59 -367 70 -402 5 -17 28 -18 294 -18 266
0 289 1 294 18 11 37 56 293 70 407 91 709 6 1210 -226 1329 -75 38 -172 45
-241 17z"/>
<path d="M1355 4517 c-18 -14 -19 -19 -7 -88 26 -152 116 -384 235 -607 69
-127 74 -134 127 -164 121 -67 260 -188 347 -301 25 -32 46 -57 47 -55 2 2 -3
50 -11 108 -7 58 -16 226 -19 374 l-7 269 -45 66 c-106 155 -220 260 -363 331
-125 63 -266 94 -304 67z"/>
<path d="M3675 4523 c-109 -14 -256 -83 -366 -171 -81 -64 -141 -131 -211
-233 l-45 -66 -7 -269 c-3 -148 -12 -316 -20 -374 -7 -58 -12 -106 -11 -108 1
-1 22 24 47 55 94 119 226 233 348 302 54 29 58 35 132 173 89 169 179 388
213 524 30 118 31 150 6 164 -20 10 -30 10 -86 3z"/>
<path d="M910 3964 c0 -3 9 -50 20 -104 57 -278 226 -622 442 -897 l50 -63
369 0 c332 0 369 2 369 16 0 78 -81 262 -161 369 -140 185 -287 290 -544 391
-161 63 -215 91 -384 200 -136 89 -161 102 -161 88z"/>
<path d="M4128 3936 c-31 -19 -98 -62 -149 -96 -95 -65 -139 -87 -375 -189
-78 -34 -177 -85 -220 -114 -135 -89 -259 -225 -338 -369 -39 -71 -86 -203
-86 -242 l0 -26 369 0 369 0 60 78 c202 261 374 606 425 852 34 163 35 160
-55 106z"/>
<path d="M652 2683 c-44 -179 -56 -283 -56 -473 0 -188 12 -293 55 -469 132
-542 484 -997 980 -1269 l76 -42 853 0 853 0 76 42 c483 264 830 703 970 1229
49 184 64 302 64 509 0 197 -20 356 -66 518 l-22 77 -1876 3 -1876 2 -31 -127z"/>
</g>
</svg>
