<svg version="1.2" baseProfile="tiny-ps" xmlns="http://www.w3.org/2000/svg" viewBox="0 0 430 114" width="90px" height="50px"><style>.shp0{fill:#005793}</style><path id="path2" fill-rule="evenodd" class="shp0" d="M130.58 82.69c-1.93 0-3.4-1.52-3.4-3.39V37.81c0-1.33.83-3.4 3.65-3.4h27.62c.94-.02 1.26.68 1.24 1.52v6.13c.02.76-.45 1.32-1.24 1.3h-20.8v8.61h12.18c7.64 0 13.63 5.21 15.21 12.79.22 1.04.17 1.99.16 2.78-.29 9.26-7.59 15.46-16.54 15.15h-18.08zm271.28-39.26v38.16c0 .66-.58 1.1-1.24 1.1h-7.99c-.64 0-1.24-.46-1.24-1.1V43.43h-12.54c-.64 0-1.1-.6-1.1-1.24v-6.54c0-.65.45-1.24 1.1-1.24h35.75c.65 0 1.1.59 1.1 1.24v6.54c0 .64-.46 1.24-1.1 1.24h-12.74zM201.75 81.11c0 .14.01.3 0 .42-.01.65-.48 1.16-1.18 1.16h-19.82c-6.82 0-12.75-5.66-12.75-12.67V47.15c0-6.75 5.72-12.87 13.02-12.83l19.42.09c.82 0 1.31.5 1.31 1.17v6.69c0 .49-.35 1.16-1.22 1.16h-18.66c-1.58 0-3.4 1.2-3.4 3.39v5.15h19.77c.84 0 1.31.5 1.31 1.17v6.46c0 .42-.36 1.12-1.19 1.12h-19.89v9.19c0 2.9 2.27 3.69 3.4 3.69h18.72c.81 0 1.16.7 1.16 1.17v6.34zM281 57.01c1.2.41 2.19.88 2.97 1.41.78.54 1.42 1.14 1.9 1.82.49.68.9 1.43 1.22 2.29.31.83.61 1.78.87 2.8l4.27 15.99c.11.45-.19 1.42-1.2 1.37h-7.99c-.44 0-.87-.21-1.1-.82l-4.24-14.95c-.47-1.57-1.08-2.78-1.8-3.61a5.644 5.644 0 0 0-2.76-1.73c-1.1-.32-2.46-.47-4.05-.44h-5.58v20.45c0 .66-.58 1.1-1.24 1.1h-7.99c-.64 0-1.24-.46-1.24-1.1V35.51c0-.61.55-1.1 1.24-1.1h8.08c.52 0 1.15.41 1.15 1.15v17.58h5.44c.68.02 1.41-.04 2.17-.16s1.51-.39 2.25-.79 1.42-1.02 2.03-1.86c.61-.82 1.1-1.95 1.47-3.36l3.1-11.6c.12-.43.31-.71.58-.81.29-.12.54-.16.8-.15h7.52c.91 0 1.28.82 1.16 1.37l-3.17 12.29c-.45 1.95-1.17 3.66-2.16 5.09-.97 1.43-2.22 2.6-3.7 3.5v.35zm26.51 15.63l-2.68 8.74c-.05.2-.13.44-.21.6-.35.75-.92.71-1.19.71h-8.38c-.63 0-1.43-.6-1.12-1.55l14.28-42.95c.3-1 .66-1.76 1.09-2.32.83-1.1 1.91-1.52 3.14-1.45l6.19-.01c2.43 0 3.44 1.68 4.11 3.78l14.28 43c.21.82-.33 1.5-1.14 1.5h-8.72c-.52 0-.96-.28-1.19-1.1l-2.68-8.95h-15.78zm13.3-8.54l-2.62-8.73-2.55-9.83h-.41l-2.62 9.83L310 64.1h10.81zm29.68 17.15c0 .33-.03.6-.14.82-.19.37-.6.62-1.02.62h-8.13c-.69 0-1.19-.5-1.19-1.16V38.61c0-.31.03-.61.04-.89.08-2.03 1.64-3.31 3.5-3.31h17.47c1.8.01 3.63.17 5.3.68 4.1 1.25 7.57 4.09 9.46 8.34.81 1.81 1.36 3.87 1.36 6.07.13 9.13-7.29 15.6-15.21 15.6h-11.44v16.15zm15.7-31.49c.01-3.37-2.69-6.45-6.75-6.33h-8.95v12.64l9.38.01c3.64 0 6.32-2.95 6.32-6.32zM147.7 60.72h-10.05v12.81h9.99c3.8 0 6.79-2.74 6.68-6.54-.12-3.8-3.07-6.27-6.62-6.27zm65.47-21.7c.03-.49.13-.94.16-1.36.09-1.48 1.29-3.25 3.32-3.25h26.43c2.13 0 3.65 1.59 3.64 3.4v43.64c0 .67-.42 1.24-1.25 1.24h-7.98c-.68.07-1.24-.51-1.24-1.16V43.5h-13.43l-.28 4.82c-.23 3.41-.45 6.53-.68 9.42-.25 2.89-.55 5.53-.91 7.93-.37 2.4-.88 4.58-1.52 6.52-.63 1.94-1.52 3.65-2.53 5.18-3.21 4.86-6.94 5.31-11.19 5.32h-.51c-.67 0-1.16-.5-1.16-1.24v-6.72c0-.7.64-1.13 1.15-1.13h.22c5.65 0 6.09-10.45 6.47-14.8.24-2.65.47-5.74.67-9.3l.62-10.48z"/><path id="path4" fill-rule="evenodd" class="shp0" d="M106.81 64.66c.4.39.4 1.03 0 1.43L93.28 79.62c-.39.39-1.03.39-1.43 0l-3.4-11.73v28.79c0 .56-.46 1.01-1.01 1.01H68.3c-.56 0-1.01-.45-1.01-1.01l5.95-10.62L67.29 92l-14.33 14.33c-.39.39-1.03.39-1.42 0L38 92.8a1.02 1.02 0 0 1 0-1.43l11.7-3.3H20.9c-.55 0-1.01-.45-1.01-1.01V67.92c0-.56.46-1.01 1.01-1.01l10.57 5.82-20.36-20.36a.99.99 0 0 1 0-1.42l13.54-13.54c.39-.39 1.02-.39 1.42 0l3.39 11.7V20.32c0-.56.46-1.01 1.01-1.01h19.14c.56 0 1.01.45 1.01 1.01L44.5 31.24l-.03.06-.01.02.01-.01 6.15-6.23 14.39-14.39c.4-.39 1.03-.39 1.43 0l13.53 13.53c.39.4.39 1.04 0 1.43l-11.71 3.32h28.79c.56 0 1.01.45 1.01 1v19.14c0 .56-.45 1.01-1.01 1.01l-10.6-5.82 5.82 5.82 14.54 14.54zm-19.37 2.22l-9.31-.98-6.64-6.64a1.02 1.02 0 0 1 0-1.43L85.03 44.3l-7.24 5.82h-9.53c-.56 0-1.01-.45-1.01-1.01V29.97l-.98 9.38-6.66 6.66c-.39.39-1.03.39-1.42 0L44.65 32.48l5.97 7.49v9.14c0 .56-.45 1.01-1.01 1.01H30.47l9.18.87 6.78 6.78c.39.39.39 1.03 0 1.43L32.89 72.73l7.13-5.82h9.68c.55 0 1 .45 1 1.01v19.14l1.21-9.59 6.45-6.46c.39-.39 1.03-.39 1.42 0l13.54 13.54-6.03-7.67v-8.99c0-.55.45-1.01 1.01-1.01h19.14z"/></svg>